<mxfile host="Electron" modified="2023-12-18T13:17:04.716Z" agent="Mozilla/5.0 (Windows NT 10.0; Win64; x64) AppleWebKit/537.36 (KHTML, like Gecko) draw.io/22.1.2 Chrome/114.0.5735.289 Electron/25.9.4 Safari/537.36" etag="XSQW0nCyVVvLCQ7AR9u4" version="22.1.2" type="device">
  <diagram name="Page-1" id="gW49ZZqSb4stFpor7FXQ">
    <mxGraphModel dx="1266" dy="638" grid="1" gridSize="10" guides="1" tooltips="1" connect="1" arrows="1" fold="1" page="1" pageScale="1" pageWidth="2200" pageHeight="1400" math="0" shadow="0">
      <root>
        <mxCell id="0" />
        <mxCell id="1" parent="0" />
        <mxCell id="3HunCR58EJsfGBgurpgo-4" value="" style="edgeStyle=orthogonalEdgeStyle;rounded=0;orthogonalLoop=1;jettySize=auto;entryX=0.5;entryY=0;entryDx=0;entryDy=0;exitX=0.5;exitY=1;exitDx=0;exitDy=0;exitPerimeter=0;fontStyle=1;fontSize=13;fontFamily=Helvetica;labelBorderColor=none;html=1;spacing=2;" edge="1" parent="1" source="3HunCR58EJsfGBgurpgo-2" target="3HunCR58EJsfGBgurpgo-3">
          <mxGeometry relative="1" as="geometry">
            <mxPoint x="630" y="130" as="sourcePoint" />
            <mxPoint x="569.77" y="273.63636363636357" as="targetPoint" />
            <Array as="points">
              <mxPoint x="569" y="220" />
              <mxPoint x="570" y="220" />
            </Array>
          </mxGeometry>
        </mxCell>
        <mxCell id="3HunCR58EJsfGBgurpgo-2" value="Start" style="strokeWidth=2;shape=mxgraph.flowchart.start_1;fontStyle=1;fontSize=13;fontFamily=Helvetica;fillColor=#d5e8d4;strokeColor=#82b366;labelBorderColor=none;whiteSpace=wrap;html=1;spacing=2;" vertex="1" parent="1">
          <mxGeometry x="520" y="150" width="98.75" height="60" as="geometry" />
        </mxCell>
        <mxCell id="3HunCR58EJsfGBgurpgo-14" value="" style="edgeStyle=orthogonalEdgeStyle;rounded=0;orthogonalLoop=1;jettySize=auto;fontStyle=1;fontSize=13;fontFamily=Helvetica;labelBorderColor=none;html=1;spacing=2;" edge="1" parent="1" source="3HunCR58EJsfGBgurpgo-3" target="3HunCR58EJsfGBgurpgo-13">
          <mxGeometry relative="1" as="geometry" />
        </mxCell>
        <mxCell id="3HunCR58EJsfGBgurpgo-15" value="YES" style="edgeLabel;align=center;verticalAlign=middle;resizable=0;points=[];fontStyle=1;fontSize=13;fontFamily=Helvetica;labelBorderColor=none;html=1;spacing=2;" vertex="1" connectable="0" parent="3HunCR58EJsfGBgurpgo-14">
          <mxGeometry x="-0.2625" y="-2" relative="1" as="geometry">
            <mxPoint as="offset" />
          </mxGeometry>
        </mxCell>
        <mxCell id="3HunCR58EJsfGBgurpgo-104" value="" style="edgeStyle=orthogonalEdgeStyle;rounded=0;orthogonalLoop=1;jettySize=auto;exitX=1;exitY=0.5;exitDx=0;exitDy=0;entryX=0;entryY=0.5;entryDx=0;entryDy=0;fontStyle=1;fontSize=13;fontFamily=Helvetica;labelBorderColor=none;html=1;spacing=2;" edge="1" parent="1" source="3HunCR58EJsfGBgurpgo-3" target="3HunCR58EJsfGBgurpgo-77">
          <mxGeometry relative="1" as="geometry" />
        </mxCell>
        <mxCell id="3HunCR58EJsfGBgurpgo-107" value="NO" style="edgeLabel;align=center;verticalAlign=middle;resizable=0;points=[];fontStyle=1;fontSize=13;fontFamily=Helvetica;labelBorderColor=none;html=1;spacing=2;" vertex="1" connectable="0" parent="3HunCR58EJsfGBgurpgo-104">
          <mxGeometry x="-0.0462" relative="1" as="geometry">
            <mxPoint as="offset" />
          </mxGeometry>
        </mxCell>
        <mxCell id="3HunCR58EJsfGBgurpgo-3" value="Color Black?" style="rhombus;strokeWidth=2;fontStyle=1;fontSize=13;fontFamily=Helvetica;fillColor=#B5B5B5;strokeColor=#36393d;labelBorderColor=none;whiteSpace=wrap;html=1;spacing=2;" vertex="1" parent="1">
          <mxGeometry x="515" y="270" width="110" height="80" as="geometry" />
        </mxCell>
        <mxCell id="3HunCR58EJsfGBgurpgo-5" value="Shoot Green" style="strokeWidth=2;fontStyle=1;fontSize=13;fontFamily=Helvetica;fillColor=#cdeb8b;strokeColor=#36393d;labelBorderColor=none;whiteSpace=wrap;html=1;spacing=2;" vertex="1" parent="1">
          <mxGeometry x="685" y="390" width="120" height="60" as="geometry" />
        </mxCell>
        <mxCell id="3HunCR58EJsfGBgurpgo-105" value="" style="edgeStyle=orthogonalEdgeStyle;rounded=0;orthogonalLoop=1;jettySize=auto;exitX=1;exitY=0.5;exitDx=0;exitDy=0;fontStyle=1;fontSize=13;fontFamily=Helvetica;labelBorderColor=none;html=1;spacing=2;" edge="1" parent="1" source="3HunCR58EJsfGBgurpgo-8">
          <mxGeometry relative="1" as="geometry">
            <mxPoint x="570" y="240" as="targetPoint" />
            <Array as="points">
              <mxPoint x="1020" y="510" />
              <mxPoint x="1020" y="240" />
              <mxPoint x="580" y="240" />
            </Array>
          </mxGeometry>
        </mxCell>
        <mxCell id="3HunCR58EJsfGBgurpgo-8" value="Turn Back" style="strokeWidth=2;fontStyle=1;fontSize=13;fontFamily=Helvetica;fillColor=#e1d5e7;strokeColor=#9673a6;labelBorderColor=none;whiteSpace=wrap;html=1;spacing=2;" vertex="1" parent="1">
          <mxGeometry x="875" y="480" width="120" height="60" as="geometry" />
        </mxCell>
        <mxCell id="3HunCR58EJsfGBgurpgo-17" value="" style="edgeStyle=orthogonalEdgeStyle;rounded=0;orthogonalLoop=1;jettySize=auto;fontStyle=1;fontSize=13;fontFamily=Helvetica;labelBorderColor=none;html=1;spacing=2;" edge="1" parent="1" source="3HunCR58EJsfGBgurpgo-13" target="3HunCR58EJsfGBgurpgo-16">
          <mxGeometry relative="1" as="geometry" />
        </mxCell>
        <mxCell id="3HunCR58EJsfGBgurpgo-18" value="YES" style="edgeLabel;align=center;verticalAlign=middle;resizable=0;points=[];fontStyle=1;fontSize=13;fontFamily=Helvetica;labelBorderColor=none;html=1;spacing=2;" vertex="1" connectable="0" parent="3HunCR58EJsfGBgurpgo-17">
          <mxGeometry x="-0.1458" y="2" relative="1" as="geometry">
            <mxPoint as="offset" />
          </mxGeometry>
        </mxCell>
        <mxCell id="3HunCR58EJsfGBgurpgo-29" value="" style="edgeStyle=orthogonalEdgeStyle;rounded=0;orthogonalLoop=1;jettySize=auto;fontStyle=1;fontSize=13;fontFamily=Helvetica;labelBorderColor=none;html=1;spacing=2;" edge="1" parent="1" source="3HunCR58EJsfGBgurpgo-13" target="3HunCR58EJsfGBgurpgo-28">
          <mxGeometry relative="1" as="geometry" />
        </mxCell>
        <mxCell id="3HunCR58EJsfGBgurpgo-75" value="NO" style="edgeLabel;align=center;verticalAlign=middle;resizable=0;points=[];fontStyle=1;fontSize=13;fontFamily=Helvetica;labelBorderColor=none;html=1;spacing=2;" vertex="1" connectable="0" parent="3HunCR58EJsfGBgurpgo-29">
          <mxGeometry x="-0.0125" relative="1" as="geometry">
            <mxPoint as="offset" />
          </mxGeometry>
        </mxCell>
        <mxCell id="3HunCR58EJsfGBgurpgo-13" value="LL == 1 &amp;amp;&amp;amp; L == 1 &lt;br style=&quot;font-size: 13px;&quot;&gt;&amp;amp;&amp;amp; R == 1 &amp;amp;&amp;amp; RR == 1 ?" style="rhombus;strokeWidth=2;align=center;fontStyle=1;fontSize=13;fontFamily=Helvetica;fillColor=#cce5ff;strokeColor=#36393d;labelBorderColor=none;whiteSpace=wrap;html=1;spacing=2;" vertex="1" parent="1">
          <mxGeometry x="476.25" y="400" width="185" height="100" as="geometry" />
        </mxCell>
        <mxCell id="3HunCR58EJsfGBgurpgo-22" value="" style="edgeStyle=orthogonalEdgeStyle;rounded=0;orthogonalLoop=1;jettySize=auto;fontStyle=1;fontSize=13;fontFamily=Helvetica;labelBorderColor=none;html=1;spacing=2;" edge="1" parent="1" source="3HunCR58EJsfGBgurpgo-16" target="3HunCR58EJsfGBgurpgo-21">
          <mxGeometry relative="1" as="geometry" />
        </mxCell>
        <mxCell id="3HunCR58EJsfGBgurpgo-23" value="YES" style="edgeLabel;align=center;verticalAlign=middle;resizable=0;points=[];fontStyle=1;fontSize=13;fontFamily=Helvetica;labelBorderColor=none;html=1;spacing=2;" vertex="1" connectable="0" parent="3HunCR58EJsfGBgurpgo-22">
          <mxGeometry x="-0.0963" relative="1" as="geometry">
            <mxPoint as="offset" />
          </mxGeometry>
        </mxCell>
        <mxCell id="3HunCR58EJsfGBgurpgo-98" value="NO" style="edgeStyle=orthogonalEdgeStyle;rounded=0;orthogonalLoop=1;jettySize=auto;exitX=0.5;exitY=1;exitDx=0;exitDy=0;entryX=0.5;entryY=0;entryDx=0;entryDy=0;fontStyle=1;fontSize=13;fontFamily=Helvetica;labelBorderColor=none;html=1;spacing=2;" edge="1" parent="1" source="3HunCR58EJsfGBgurpgo-16" target="3HunCR58EJsfGBgurpgo-24">
          <mxGeometry relative="1" as="geometry" />
        </mxCell>
        <mxCell id="3HunCR58EJsfGBgurpgo-16" value="lastTurnRight == True?" style="rhombus;strokeWidth=2;align=center;fontStyle=1;fontSize=13;fontFamily=Helvetica;fillColor=#e1d5e7;strokeColor=#9673a6;labelBorderColor=none;whiteSpace=wrap;html=1;spacing=2;" vertex="1" parent="1">
          <mxGeometry x="220" y="400" width="185" height="100" as="geometry" />
        </mxCell>
        <mxCell id="3HunCR58EJsfGBgurpgo-91" value="" style="edgeStyle=orthogonalEdgeStyle;rounded=0;orthogonalLoop=1;jettySize=auto;exitX=0.5;exitY=0;exitDx=0;exitDy=0;fontStyle=1;fontSize=13;fontFamily=Helvetica;labelBorderColor=none;html=1;spacing=2;" edge="1" parent="1">
          <mxGeometry relative="1" as="geometry">
            <mxPoint x="570" y="240" as="targetPoint" />
            <mxPoint x="312.5000000000001" y="330" as="sourcePoint" />
            <Array as="points">
              <mxPoint x="311" y="330" />
              <mxPoint x="311" y="240" />
            </Array>
          </mxGeometry>
        </mxCell>
        <mxCell id="3HunCR58EJsfGBgurpgo-21" value="Turn Sharp Right" style="strokeWidth=2;fontStyle=1;fontSize=13;fontFamily=Helvetica;fillColor=#ffe6cc;strokeColor=#d79b00;labelBorderColor=none;whiteSpace=wrap;html=1;spacing=2;" vertex="1" parent="1">
          <mxGeometry x="252.5" y="290" width="120" height="60" as="geometry" />
        </mxCell>
        <mxCell id="3HunCR58EJsfGBgurpgo-92" value="" style="edgeStyle=orthogonalEdgeStyle;rounded=0;orthogonalLoop=1;jettySize=auto;exitX=0;exitY=0.5;exitDx=0;exitDy=0;fontStyle=1;fontSize=13;fontFamily=Helvetica;labelBorderColor=none;html=1;spacing=2;" edge="1" parent="1" source="3HunCR58EJsfGBgurpgo-24">
          <mxGeometry relative="1" as="geometry">
            <mxPoint x="310" y="240" as="targetPoint" />
            <mxPoint x="252.5" y="620" as="sourcePoint" />
            <Array as="points">
              <mxPoint x="210" y="560" />
              <mxPoint x="210" y="240" />
            </Array>
          </mxGeometry>
        </mxCell>
        <mxCell id="3HunCR58EJsfGBgurpgo-24" value="Turn Sharp Left" style="strokeWidth=2;fontStyle=1;fontSize=13;fontFamily=Helvetica;fillColor=#fff2cc;strokeColor=#d6b656;labelBorderColor=none;whiteSpace=wrap;html=1;spacing=2;" vertex="1" parent="1">
          <mxGeometry x="252.5" y="530" width="120" height="60" as="geometry" />
        </mxCell>
        <mxCell id="3HunCR58EJsfGBgurpgo-31" value="" style="edgeStyle=orthogonalEdgeStyle;rounded=0;orthogonalLoop=1;jettySize=auto;fontStyle=1;fontSize=13;fontFamily=Helvetica;labelBorderColor=none;html=1;spacing=2;" edge="1" parent="1" source="3HunCR58EJsfGBgurpgo-28" target="3HunCR58EJsfGBgurpgo-30">
          <mxGeometry relative="1" as="geometry" />
        </mxCell>
        <mxCell id="3HunCR58EJsfGBgurpgo-32" value="YES" style="edgeLabel;align=center;verticalAlign=middle;resizable=0;points=[];fontStyle=1;fontSize=13;fontFamily=Helvetica;labelBorderColor=none;html=1;spacing=2;" vertex="1" connectable="0" parent="3HunCR58EJsfGBgurpgo-31">
          <mxGeometry x="0.0519" relative="1" as="geometry">
            <mxPoint as="offset" />
          </mxGeometry>
        </mxCell>
        <mxCell id="3HunCR58EJsfGBgurpgo-34" value="" style="edgeStyle=orthogonalEdgeStyle;rounded=0;orthogonalLoop=1;jettySize=auto;fontStyle=1;fontSize=13;fontFamily=Helvetica;labelBorderColor=none;html=1;spacing=2;" edge="1" parent="1" source="3HunCR58EJsfGBgurpgo-28" target="3HunCR58EJsfGBgurpgo-33">
          <mxGeometry relative="1" as="geometry" />
        </mxCell>
        <mxCell id="3HunCR58EJsfGBgurpgo-74" value="NO" style="edgeLabel;align=center;verticalAlign=middle;resizable=0;points=[];fontStyle=1;fontSize=13;fontFamily=Helvetica;labelBorderColor=none;html=1;spacing=2;" vertex="1" connectable="0" parent="3HunCR58EJsfGBgurpgo-34">
          <mxGeometry x="0.0083" y="1" relative="1" as="geometry">
            <mxPoint as="offset" />
          </mxGeometry>
        </mxCell>
        <mxCell id="3HunCR58EJsfGBgurpgo-28" value="RR == 1 &amp;amp;&amp;amp; R == 1 &lt;br style=&quot;font-size: 13px;&quot;&gt;&amp;amp;&amp;amp; M == 1 ?" style="rhombus;strokeWidth=2;align=center;fontStyle=1;fontSize=13;fontFamily=Helvetica;fillColor=#cce5ff;strokeColor=#36393d;labelBorderColor=none;whiteSpace=wrap;html=1;spacing=2;" vertex="1" parent="1">
          <mxGeometry x="477.5" y="560" width="185" height="100" as="geometry" />
        </mxCell>
        <mxCell id="3HunCR58EJsfGBgurpgo-38" value="" style="edgeStyle=orthogonalEdgeStyle;rounded=0;orthogonalLoop=1;jettySize=auto;fontStyle=1;fontSize=13;fontFamily=Helvetica;labelBorderColor=none;html=1;spacing=2;" edge="1" parent="1" source="3HunCR58EJsfGBgurpgo-30" target="3HunCR58EJsfGBgurpgo-37">
          <mxGeometry relative="1" as="geometry" />
        </mxCell>
        <mxCell id="3HunCR58EJsfGBgurpgo-30" value="Turn Sharp Right" style="strokeWidth=2;fontStyle=1;fontSize=13;fontFamily=Helvetica;fillColor=#ffe6cc;strokeColor=#d79b00;labelBorderColor=none;whiteSpace=wrap;html=1;spacing=2;" vertex="1" parent="1">
          <mxGeometry x="775" y="580" width="120" height="60" as="geometry" />
        </mxCell>
        <mxCell id="3HunCR58EJsfGBgurpgo-40" value="" style="edgeStyle=orthogonalEdgeStyle;rounded=0;orthogonalLoop=1;jettySize=auto;fontStyle=1;fontSize=13;fontFamily=Helvetica;labelBorderColor=none;html=1;spacing=2;" edge="1" parent="1" source="3HunCR58EJsfGBgurpgo-33" target="3HunCR58EJsfGBgurpgo-39">
          <mxGeometry relative="1" as="geometry" />
        </mxCell>
        <mxCell id="3HunCR58EJsfGBgurpgo-41" value="YES" style="edgeLabel;align=center;verticalAlign=middle;resizable=0;points=[];fontStyle=1;fontSize=13;fontFamily=Helvetica;labelBorderColor=none;html=1;spacing=2;" vertex="1" connectable="0" parent="3HunCR58EJsfGBgurpgo-40">
          <mxGeometry x="0.0222" y="1" relative="1" as="geometry">
            <mxPoint as="offset" />
          </mxGeometry>
        </mxCell>
        <mxCell id="3HunCR58EJsfGBgurpgo-50" value="" style="edgeStyle=orthogonalEdgeStyle;rounded=0;orthogonalLoop=1;jettySize=auto;fontStyle=1;fontSize=13;fontFamily=Helvetica;labelBorderColor=none;html=1;spacing=2;" edge="1" parent="1" source="3HunCR58EJsfGBgurpgo-33" target="3HunCR58EJsfGBgurpgo-49">
          <mxGeometry relative="1" as="geometry" />
        </mxCell>
        <mxCell id="3HunCR58EJsfGBgurpgo-72" value="NO" style="edgeLabel;align=center;verticalAlign=middle;resizable=0;points=[];fontStyle=1;fontSize=13;fontFamily=Helvetica;labelBorderColor=none;html=1;spacing=2;" vertex="1" connectable="0" parent="3HunCR58EJsfGBgurpgo-50">
          <mxGeometry x="-0.0125" relative="1" as="geometry">
            <mxPoint as="offset" />
          </mxGeometry>
        </mxCell>
        <mxCell id="3HunCR58EJsfGBgurpgo-33" value="LL == 1 &amp;amp;&amp;amp; L == 1 &lt;br style=&quot;font-size: 13px;&quot;&gt;&amp;amp;&amp;amp; M == 1 ?" style="rhombus;strokeWidth=2;align=center;fontStyle=1;fontSize=13;fontFamily=Helvetica;fillColor=#cce5ff;strokeColor=#36393d;labelBorderColor=none;whiteSpace=wrap;html=1;spacing=2;" vertex="1" parent="1">
          <mxGeometry x="476.25" y="710" width="185" height="100" as="geometry" />
        </mxCell>
        <mxCell id="3HunCR58EJsfGBgurpgo-108" value="" style="edgeStyle=orthogonalEdgeStyle;rounded=0;orthogonalLoop=1;jettySize=auto;exitX=1;exitY=0.5;exitDx=0;exitDy=0;labelBorderColor=none;html=1;spacing=2;fontStyle=1;fontSize=13;" edge="1" parent="1" source="3HunCR58EJsfGBgurpgo-37">
          <mxGeometry relative="1" as="geometry">
            <mxPoint x="1020" y="699.6470588235295" as="targetPoint" />
          </mxGeometry>
        </mxCell>
        <mxCell id="3HunCR58EJsfGBgurpgo-37" value="lastTurnRight = True" style="strokeWidth=2;fontStyle=1;fontSize=13;fontFamily=Helvetica;fillColor=#ffe6cc;strokeColor=#d79b00;labelBorderColor=none;whiteSpace=wrap;html=1;spacing=2;" vertex="1" parent="1">
          <mxGeometry x="775" y="670" width="120" height="60" as="geometry" />
        </mxCell>
        <mxCell id="3HunCR58EJsfGBgurpgo-43" value="" style="edgeStyle=orthogonalEdgeStyle;rounded=0;orthogonalLoop=1;jettySize=auto;fontStyle=1;fontSize=13;fontFamily=Helvetica;labelBorderColor=none;html=1;spacing=2;" edge="1" parent="1" source="3HunCR58EJsfGBgurpgo-39" target="3HunCR58EJsfGBgurpgo-42">
          <mxGeometry relative="1" as="geometry" />
        </mxCell>
        <mxCell id="3HunCR58EJsfGBgurpgo-39" value="Turn Sharp Left" style="strokeWidth=2;fontStyle=1;fontSize=13;fontFamily=Helvetica;fillColor=#fff2cc;strokeColor=#d6b656;labelBorderColor=none;whiteSpace=wrap;html=1;spacing=2;" vertex="1" parent="1">
          <mxGeometry x="248.75" y="730" width="120" height="60" as="geometry" />
        </mxCell>
        <mxCell id="3HunCR58EJsfGBgurpgo-94" value="" style="edgeStyle=orthogonalEdgeStyle;rounded=0;orthogonalLoop=1;jettySize=auto;exitX=0;exitY=0.5;exitDx=0;exitDy=0;fontStyle=1;fontSize=13;fontFamily=Helvetica;labelBorderColor=none;html=1;spacing=2;" edge="1" parent="1" source="3HunCR58EJsfGBgurpgo-42">
          <mxGeometry relative="1" as="geometry">
            <mxPoint x="210" y="560" as="targetPoint" />
          </mxGeometry>
        </mxCell>
        <mxCell id="3HunCR58EJsfGBgurpgo-42" value="lastTurnRight = False" style="strokeWidth=2;fontStyle=1;fontSize=13;fontFamily=Helvetica;fillColor=#fff2cc;strokeColor=#d6b656;labelBorderColor=none;whiteSpace=wrap;html=1;spacing=2;" vertex="1" parent="1">
          <mxGeometry x="248.75" y="820" width="120" height="60" as="geometry" />
        </mxCell>
        <mxCell id="3HunCR58EJsfGBgurpgo-52" value="" style="edgeStyle=orthogonalEdgeStyle;rounded=0;orthogonalLoop=1;jettySize=auto;fontStyle=1;fontSize=13;fontFamily=Helvetica;labelBorderColor=none;html=1;spacing=2;" edge="1" parent="1" source="3HunCR58EJsfGBgurpgo-49" target="3HunCR58EJsfGBgurpgo-51">
          <mxGeometry relative="1" as="geometry" />
        </mxCell>
        <mxCell id="3HunCR58EJsfGBgurpgo-71" value="YES" style="edgeLabel;align=center;verticalAlign=middle;resizable=0;points=[];fontStyle=1;fontSize=13;fontFamily=Helvetica;labelBorderColor=none;html=1;spacing=2;" vertex="1" connectable="0" parent="3HunCR58EJsfGBgurpgo-52">
          <mxGeometry x="0.0074" y="2" relative="1" as="geometry">
            <mxPoint as="offset" />
          </mxGeometry>
        </mxCell>
        <mxCell id="3HunCR58EJsfGBgurpgo-54" value="" style="edgeStyle=orthogonalEdgeStyle;rounded=0;orthogonalLoop=1;jettySize=auto;fontStyle=1;fontSize=13;fontFamily=Helvetica;labelBorderColor=none;html=1;spacing=2;" edge="1" parent="1" source="3HunCR58EJsfGBgurpgo-49" target="3HunCR58EJsfGBgurpgo-53">
          <mxGeometry relative="1" as="geometry" />
        </mxCell>
        <mxCell id="3HunCR58EJsfGBgurpgo-73" value="NO" style="edgeLabel;align=center;verticalAlign=middle;resizable=0;points=[];fontStyle=1;fontSize=13;fontFamily=Helvetica;labelBorderColor=none;html=1;spacing=2;" vertex="1" connectable="0" parent="3HunCR58EJsfGBgurpgo-54">
          <mxGeometry x="0.0083" y="-1" relative="1" as="geometry">
            <mxPoint as="offset" />
          </mxGeometry>
        </mxCell>
        <mxCell id="3HunCR58EJsfGBgurpgo-49" value="M == 1?" style="rhombus;strokeWidth=2;align=center;fontStyle=1;fontSize=13;fontFamily=Helvetica;fillColor=#cce5ff;strokeColor=#36393d;labelBorderColor=none;whiteSpace=wrap;html=1;spacing=2;" vertex="1" parent="1">
          <mxGeometry x="477.5" y="850" width="185" height="100" as="geometry" />
        </mxCell>
        <mxCell id="3HunCR58EJsfGBgurpgo-101" value="" style="edgeStyle=orthogonalEdgeStyle;rounded=0;orthogonalLoop=1;jettySize=auto;exitX=1;exitY=0.5;exitDx=0;exitDy=0;fontStyle=1;fontSize=13;fontFamily=Helvetica;labelBorderColor=none;html=1;spacing=2;" edge="1" parent="1" source="3HunCR58EJsfGBgurpgo-51">
          <mxGeometry relative="1" as="geometry">
            <mxPoint x="1020" y="510" as="targetPoint" />
          </mxGeometry>
        </mxCell>
        <mxCell id="3HunCR58EJsfGBgurpgo-51" value="Move Forward" style="strokeWidth=2;fontStyle=1;fontSize=13;fontFamily=Helvetica;fillColor=#e1d5e7;strokeColor=#9673a6;labelBorderColor=none;whiteSpace=wrap;html=1;spacing=2;" vertex="1" parent="1">
          <mxGeometry x="775" y="870" width="120" height="60" as="geometry" />
        </mxCell>
        <mxCell id="3HunCR58EJsfGBgurpgo-56" value="" style="edgeStyle=orthogonalEdgeStyle;rounded=0;orthogonalLoop=1;jettySize=auto;fontStyle=1;fontSize=13;fontFamily=Helvetica;labelBorderColor=none;html=1;spacing=2;" edge="1" parent="1" source="3HunCR58EJsfGBgurpgo-53" target="3HunCR58EJsfGBgurpgo-55">
          <mxGeometry relative="1" as="geometry" />
        </mxCell>
        <mxCell id="3HunCR58EJsfGBgurpgo-70" value="YES" style="edgeLabel;align=center;verticalAlign=middle;resizable=0;points=[];fontStyle=1;fontSize=13;fontFamily=Helvetica;labelBorderColor=none;html=1;spacing=2;" vertex="1" connectable="0" parent="3HunCR58EJsfGBgurpgo-56">
          <mxGeometry x="-0.037" relative="1" as="geometry">
            <mxPoint as="offset" />
          </mxGeometry>
        </mxCell>
        <mxCell id="3HunCR58EJsfGBgurpgo-60" value="" style="edgeStyle=orthogonalEdgeStyle;rounded=0;orthogonalLoop=1;jettySize=auto;fontStyle=1;fontSize=13;fontFamily=Helvetica;labelBorderColor=none;html=1;spacing=2;" edge="1" parent="1" source="3HunCR58EJsfGBgurpgo-53" target="3HunCR58EJsfGBgurpgo-59">
          <mxGeometry relative="1" as="geometry" />
        </mxCell>
        <mxCell id="3HunCR58EJsfGBgurpgo-69" value="NO" style="edgeLabel;align=center;verticalAlign=middle;resizable=0;points=[];fontStyle=1;fontSize=13;fontFamily=Helvetica;labelBorderColor=none;html=1;spacing=2;" vertex="1" connectable="0" parent="3HunCR58EJsfGBgurpgo-60">
          <mxGeometry x="0.0387" y="-1" relative="1" as="geometry">
            <mxPoint as="offset" />
          </mxGeometry>
        </mxCell>
        <mxCell id="3HunCR58EJsfGBgurpgo-53" value="R == 1?" style="rhombus;strokeWidth=2;align=center;fontStyle=1;fontSize=13;fontFamily=Helvetica;fillColor=#cce5ff;strokeColor=#36393d;labelBorderColor=none;whiteSpace=wrap;html=1;spacing=2;" vertex="1" parent="1">
          <mxGeometry x="477.5" y="1000" width="185" height="100" as="geometry" />
        </mxCell>
        <mxCell id="3HunCR58EJsfGBgurpgo-100" value="" style="edgeStyle=orthogonalEdgeStyle;rounded=0;orthogonalLoop=1;jettySize=auto;exitX=1;exitY=0.5;exitDx=0;exitDy=0;fontStyle=1;fontSize=13;fontFamily=Helvetica;labelBorderColor=none;html=1;spacing=2;" edge="1" parent="1" source="3HunCR58EJsfGBgurpgo-55">
          <mxGeometry relative="1" as="geometry">
            <mxPoint x="1020" y="900" as="targetPoint" />
          </mxGeometry>
        </mxCell>
        <mxCell id="3HunCR58EJsfGBgurpgo-55" value="Turn Right" style="strokeWidth=2;fontStyle=1;fontSize=13;fontFamily=Helvetica;fillColor=#ffe6cc;strokeColor=#d79b00;labelBorderColor=none;whiteSpace=wrap;html=1;spacing=2;" vertex="1" parent="1">
          <mxGeometry x="775" y="1020" width="120" height="60" as="geometry" />
        </mxCell>
        <mxCell id="3HunCR58EJsfGBgurpgo-62" value="" style="edgeStyle=orthogonalEdgeStyle;rounded=0;orthogonalLoop=1;jettySize=auto;fontStyle=1;fontSize=13;fontFamily=Helvetica;labelBorderColor=none;html=1;spacing=2;" edge="1" parent="1" source="3HunCR58EJsfGBgurpgo-59" target="3HunCR58EJsfGBgurpgo-61">
          <mxGeometry relative="1" as="geometry" />
        </mxCell>
        <mxCell id="3HunCR58EJsfGBgurpgo-66" value="YES" style="edgeLabel;align=center;verticalAlign=middle;resizable=0;points=[];fontStyle=1;fontSize=13;fontFamily=Helvetica;labelBorderColor=none;html=1;spacing=2;" vertex="1" connectable="0" parent="3HunCR58EJsfGBgurpgo-62">
          <mxGeometry x="-0.1905" y="2" relative="1" as="geometry">
            <mxPoint as="offset" />
          </mxGeometry>
        </mxCell>
        <mxCell id="3HunCR58EJsfGBgurpgo-64" value="" style="edgeStyle=orthogonalEdgeStyle;rounded=0;orthogonalLoop=1;jettySize=auto;fontStyle=1;fontSize=13;fontFamily=Helvetica;labelBorderColor=none;html=1;spacing=2;" edge="1" parent="1" source="3HunCR58EJsfGBgurpgo-59" target="3HunCR58EJsfGBgurpgo-63">
          <mxGeometry relative="1" as="geometry" />
        </mxCell>
        <mxCell id="3HunCR58EJsfGBgurpgo-65" value="NO" style="edgeLabel;align=center;verticalAlign=middle;resizable=0;points=[];fontStyle=1;fontSize=13;fontFamily=Helvetica;labelBorderColor=none;html=1;spacing=2;" vertex="1" connectable="0" parent="3HunCR58EJsfGBgurpgo-64">
          <mxGeometry x="-0.3978" y="1" relative="1" as="geometry">
            <mxPoint x="9" y="8" as="offset" />
          </mxGeometry>
        </mxCell>
        <mxCell id="3HunCR58EJsfGBgurpgo-68" value="" style="edgeStyle=orthogonalEdgeStyle;rounded=0;orthogonalLoop=1;jettySize=auto;fontStyle=1;fontSize=13;fontFamily=Helvetica;labelBorderColor=none;html=1;spacing=2;" edge="1" parent="1" source="3HunCR58EJsfGBgurpgo-59" target="3HunCR58EJsfGBgurpgo-63">
          <mxGeometry relative="1" as="geometry" />
        </mxCell>
        <mxCell id="3HunCR58EJsfGBgurpgo-59" value="L == 1?" style="rhombus;strokeWidth=2;align=center;fontStyle=1;fontSize=13;fontFamily=Helvetica;fillColor=#cce5ff;strokeColor=#36393d;labelBorderColor=none;whiteSpace=wrap;html=1;spacing=2;" vertex="1" parent="1">
          <mxGeometry x="478.75" y="1160" width="182.5" height="100" as="geometry" />
        </mxCell>
        <mxCell id="3HunCR58EJsfGBgurpgo-95" value="" style="edgeStyle=orthogonalEdgeStyle;rounded=0;orthogonalLoop=1;jettySize=auto;exitX=0;exitY=0.5;exitDx=0;exitDy=0;fontStyle=1;fontSize=13;fontFamily=Helvetica;labelBorderColor=none;html=1;spacing=2;" edge="1" parent="1" source="3HunCR58EJsfGBgurpgo-61">
          <mxGeometry relative="1" as="geometry">
            <mxPoint x="210" y="850" as="targetPoint" />
          </mxGeometry>
        </mxCell>
        <mxCell id="3HunCR58EJsfGBgurpgo-61" value="Turn Left" style="strokeWidth=2;fontStyle=1;fontSize=13;fontFamily=Helvetica;fillColor=#fff2cc;strokeColor=#d6b656;labelBorderColor=none;whiteSpace=wrap;html=1;spacing=2;" vertex="1" parent="1">
          <mxGeometry x="252.5" y="1180" width="120" height="60" as="geometry" />
        </mxCell>
        <mxCell id="3HunCR58EJsfGBgurpgo-63" value="Stop" style="strokeWidth=2;fontStyle=1;fontSize=13;fontFamily=Helvetica;fillColor=#f8cecc;strokeColor=#b85450;labelBorderColor=none;whiteSpace=wrap;html=1;spacing=2;" vertex="1" parent="1">
          <mxGeometry x="510" y="1300" width="120" height="60" as="geometry" />
        </mxCell>
        <mxCell id="3HunCR58EJsfGBgurpgo-79" value="" style="edgeStyle=orthogonalEdgeStyle;rounded=0;orthogonalLoop=1;jettySize=auto;exitX=0.5;exitY=1;exitDx=0;exitDy=0;entryX=0.5;entryY=0;entryDx=0;entryDy=0;fontStyle=1;fontSize=13;fontFamily=Helvetica;labelBorderColor=none;html=1;spacing=2;" edge="1" parent="1" source="3HunCR58EJsfGBgurpgo-77" target="3HunCR58EJsfGBgurpgo-5">
          <mxGeometry relative="1" as="geometry" />
        </mxCell>
        <mxCell id="3HunCR58EJsfGBgurpgo-81" value="YES" style="edgeLabel;align=center;verticalAlign=middle;resizable=0;points=[];fontStyle=1;fontSize=13;fontFamily=Helvetica;labelBorderColor=none;html=1;spacing=2;" vertex="1" connectable="0" parent="3HunCR58EJsfGBgurpgo-79">
          <mxGeometry x="0.2" y="1" relative="1" as="geometry">
            <mxPoint x="-1" y="-4" as="offset" />
          </mxGeometry>
        </mxCell>
        <mxCell id="3HunCR58EJsfGBgurpgo-85" value="NO" style="edgeStyle=orthogonalEdgeStyle;rounded=0;orthogonalLoop=1;jettySize=auto;fontStyle=1;fontSize=13;fontFamily=Helvetica;labelBorderColor=none;html=1;spacing=2;" edge="1" parent="1" source="3HunCR58EJsfGBgurpgo-77" target="3HunCR58EJsfGBgurpgo-84">
          <mxGeometry relative="1" as="geometry" />
        </mxCell>
        <mxCell id="3HunCR58EJsfGBgurpgo-77" value="Color Green" style="rhombus;strokeWidth=2;fontStyle=1;fontSize=13;fontFamily=Helvetica;fillColor=#cdeb8b;strokeColor=#36393d;labelBorderColor=none;whiteSpace=wrap;html=1;spacing=2;" vertex="1" parent="1">
          <mxGeometry x="690" y="270" width="110" height="80" as="geometry" />
        </mxCell>
        <mxCell id="3HunCR58EJsfGBgurpgo-87" value="YES" style="edgeStyle=orthogonalEdgeStyle;rounded=0;orthogonalLoop=1;jettySize=auto;fontStyle=1;fontSize=13;fontFamily=Helvetica;labelBorderColor=none;html=1;spacing=2;" edge="1" parent="1" source="3HunCR58EJsfGBgurpgo-84" target="3HunCR58EJsfGBgurpgo-86">
          <mxGeometry relative="1" as="geometry" />
        </mxCell>
        <mxCell id="3HunCR58EJsfGBgurpgo-84" value="Color Red" style="rhombus;strokeWidth=2;fontStyle=1;fontSize=13;fontFamily=Helvetica;fillColor=#ffcccc;strokeColor=#36393d;labelBorderColor=none;whiteSpace=wrap;html=1;spacing=2;" vertex="1" parent="1">
          <mxGeometry x="880" y="270" width="110" height="80" as="geometry" />
        </mxCell>
        <mxCell id="3HunCR58EJsfGBgurpgo-89" value="" style="edgeStyle=orthogonalEdgeStyle;rounded=0;orthogonalLoop=1;jettySize=auto;entryX=0.5;entryY=0;entryDx=0;entryDy=0;exitX=0.5;exitY=1;exitDx=0;exitDy=0;fontStyle=1;fontSize=13;fontFamily=Helvetica;labelBorderColor=none;html=1;spacing=2;" edge="1" parent="1" source="3HunCR58EJsfGBgurpgo-86" target="3HunCR58EJsfGBgurpgo-8">
          <mxGeometry relative="1" as="geometry">
            <mxPoint x="930" y="460" as="sourcePoint" />
          </mxGeometry>
        </mxCell>
        <mxCell id="3HunCR58EJsfGBgurpgo-86" value="Shoot Red" style="strokeWidth=2;fontStyle=1;fontSize=13;fontFamily=Helvetica;fillColor=#ffcccc;strokeColor=#36393d;labelBorderColor=none;whiteSpace=wrap;html=1;spacing=2;" vertex="1" parent="1">
          <mxGeometry x="875" y="390" width="120" height="60" as="geometry" />
        </mxCell>
        <mxCell id="3HunCR58EJsfGBgurpgo-88" value="" style="edgeStyle=orthogonalEdgeStyle;rounded=0;orthogonalLoop=1;jettySize=auto;exitX=0.5;exitY=1;exitDx=0;exitDy=0;entryX=0.007;entryY=0.593;entryDx=0;entryDy=0;entryPerimeter=0;fontStyle=1;fontSize=13;fontFamily=Helvetica;labelBorderColor=none;html=1;spacing=2;" edge="1" parent="1" source="3HunCR58EJsfGBgurpgo-5" target="3HunCR58EJsfGBgurpgo-8">
          <mxGeometry relative="1" as="geometry" />
        </mxCell>
      </root>
    </mxGraphModel>
  </diagram>
</mxfile>
